<?xml version="1.0" encoding="UTF-8" standalone="no"?>
<!DOCTYPE svg PUBLIC "-//W3C//DTD SVG 1.1//EN"
 "http://www.w3.org/Graphics/SVG/1.1/DTD/svg11.dtd">
<!-- Generated by graphviz version 2.42.4 (0)
 -->
<!-- Pages: 1 -->
<svg width="639pt" height="449pt"
 viewBox="0.00 0.00 639.00 449.00" xmlns="http://www.w3.org/2000/svg" xmlns:xlink="http://www.w3.org/1999/xlink">
<g id="graph0" class="graph" transform="scale(1 1) rotate(0) translate(4 445)">
<polygon fill="white" stroke="transparent" points="-4,4 -4,-445 635,-445 635,4 -4,4"/>
<!-- node_75FB9F5E0050 -->
<g id="node1" class="node">
<title>node_75FB9F5E0050</title>
<polygon fill="#b6b4b4" stroke="transparent" points="437,-441 83,-441 83,-318 437,-318 437,-441"/>
<polygon fill="#568bce" fill-opacity="0.956863" stroke="transparent" points="92,-414.5 92,-435.5 428,-435.5 428,-414.5 92,-414.5"/>
<polygon fill="none" stroke="black" points="92,-414.5 92,-435.5 428,-435.5 428,-414.5 92,-414.5"/>
<text text-anchor="start" x="178" y="-421.3" font-family="Times,serif" font-size="14.00">idx=0x75FB9F5E0050</text>
<polygon fill="#6522df" fill-opacity="0.411765" stroke="transparent" points="92,-393.5 92,-414.5 428,-414.5 428,-393.5 92,-393.5"/>
<polygon fill="none" stroke="black" points="92,-393.5 92,-414.5 428,-414.5 428,-393.5 92,-393.5"/>
<text text-anchor="start" x="217" y="-400.3" font-family="Times,serif" font-size="14.00">parent=0x0</text>
<polygon fill="none" stroke="black" points="92,-372.5 92,-393.5 428,-393.5 428,-372.5 92,-372.5"/>
<text text-anchor="start" x="203" y="-379.3" font-family="Times,serif" font-size="14.00">type=NUMBER</text>
<polygon fill="none" stroke="black" points="92,-351.5 92,-372.5 428,-372.5 428,-351.5 92,-351.5"/>
<text text-anchor="start" x="231" y="-358.3" font-family="Times,serif" font-size="14.00">value=*</text>
<polygon fill="none" stroke="black" points="92,-322.5 92,-351.5 428,-351.5 428,-322.5 92,-322.5"/>
<polygon fill="#2c2d89" fill-opacity="0.764706" stroke="transparent" points="97,-327.5 97,-346.5 247,-346.5 247,-327.5 97,-327.5"/>
<text text-anchor="start" x="99" y="-333.3" font-family="Times,serif" font-size="14.00">Да &#45; 75FB9F5E0090</text>
<text text-anchor="start" x="251" y="-334.5" font-family="Times,serif" font-size="10.00">│</text>
<polygon fill="#5b04b2" fill-opacity="0.054902" stroke="transparent" points="262,-327.5 262,-346.5 423,-346.5 423,-327.5 262,-327.5"/>
<text text-anchor="start" x="264" y="-333.3" font-family="Times,serif" font-size="14.00">Нет &#45; 75FB9F5E00D0</text>
<polygon fill="none" stroke="black" points="91,-322 91,-437 429,-437 429,-322 91,-322"/>
</g>
<!-- node_75FB9F5E0090 -->
<g id="node2" class="node">
<title>node_75FB9F5E0090</title>
<polygon fill="#b6b4b4" stroke="transparent" points="214,-282 0,-282 0,-159 214,-159 214,-282"/>
<polygon fill="#2c2d89" fill-opacity="0.764706" stroke="transparent" points="9,-255.5 9,-276.5 205,-276.5 205,-255.5 9,-255.5"/>
<polygon fill="none" stroke="black" points="9,-255.5 9,-276.5 205,-276.5 205,-255.5 9,-255.5"/>
<text text-anchor="start" x="25" y="-262.3" font-family="Times,serif" font-size="14.00">idx=0x75FB9F5E0090</text>
<polygon fill="#568bce" fill-opacity="0.956863" stroke="transparent" points="9,-234.5 9,-255.5 205,-255.5 205,-234.5 9,-234.5"/>
<polygon fill="none" stroke="black" points="9,-234.5 9,-255.5 205,-255.5 205,-234.5 9,-234.5"/>
<text text-anchor="start" x="12" y="-241.3" font-family="Times,serif" font-size="14.00">parent=0x75FB9F5E0050</text>
<polygon fill="none" stroke="black" points="9,-213.5 9,-234.5 205,-234.5 205,-213.5 9,-213.5"/>
<text text-anchor="start" x="48" y="-220.3" font-family="Times,serif" font-size="14.00">type=VARIABLE</text>
<polygon fill="none" stroke="black" points="9,-192.5 9,-213.5 205,-213.5 205,-192.5 9,-192.5"/>
<text text-anchor="start" x="77.5" y="-199.3" font-family="Times,serif" font-size="14.00">value=x</text>
<polygon fill="none" stroke="black" points="9,-163.5 9,-192.5 205,-192.5 205,-163.5 9,-163.5"/>
<polygon fill="#b6b4b4" stroke="transparent" points="14,-168.5 14,-187.5 83,-187.5 83,-168.5 14,-168.5"/>
<text text-anchor="start" x="32.5" y="-174.3" font-family="Times,serif" font-size="14.00">0 &#45; 0</text>
<text text-anchor="start" x="103.5" y="-175.5" font-family="Times,serif" font-size="10.00">│</text>
<polygon fill="#b6b4b4" stroke="transparent" points="131,-168.5 131,-187.5 200,-187.5 200,-168.5 131,-168.5"/>
<text text-anchor="start" x="149.5" y="-174.3" font-family="Times,serif" font-size="14.00">0 &#45; 0</text>
<polygon fill="none" stroke="black" points="8,-163 8,-278 206,-278 206,-163 8,-163"/>
</g>
<!-- node_75FB9F5E0050&#45;&gt;node_75FB9F5E0090 -->
<g id="edge1" class="edge">
<title>node_75FB9F5E0050:s&#45;&gt;node_75FB9F5E0090</title>
<path fill="none" stroke="black" d="M172,-326.5C172,-326.5 162.04,-310.42 149.93,-290.84"/>
<polygon fill="black" stroke="black" points="152.86,-288.94 144.62,-282.27 146.91,-292.62 152.86,-288.94"/>
</g>
<!-- node_75FB9F5E00D0 -->
<g id="node3" class="node">
<title>node_75FB9F5E00D0</title>
<polygon fill="#b6b4b4" stroke="transparent" points="583.5,-282 232.5,-282 232.5,-159 583.5,-159 583.5,-282"/>
<polygon fill="#5b04b2" fill-opacity="0.054902" stroke="transparent" points="242,-255.5 242,-276.5 575,-276.5 575,-255.5 242,-255.5"/>
<polygon fill="none" stroke="black" points="242,-255.5 242,-276.5 575,-276.5 575,-255.5 242,-255.5"/>
<text text-anchor="start" x="325.5" y="-262.3" font-family="Times,serif" font-size="14.00">idx=0x75FB9F5E00D0</text>
<polygon fill="#568bce" fill-opacity="0.956863" stroke="transparent" points="242,-234.5 242,-255.5 575,-255.5 575,-234.5 242,-234.5"/>
<polygon fill="none" stroke="black" points="242,-234.5 242,-255.5 575,-255.5 575,-234.5 242,-234.5"/>
<text text-anchor="start" x="313.5" y="-241.3" font-family="Times,serif" font-size="14.00">parent=0x75FB9F5E0050</text>
<polygon fill="none" stroke="black" points="242,-213.5 242,-234.5 575,-234.5 575,-213.5 242,-213.5"/>
<text text-anchor="start" x="351.5" y="-220.3" font-family="Times,serif" font-size="14.00">type=NUMBER</text>
<polygon fill="none" stroke="black" points="242,-192.5 242,-213.5 575,-213.5 575,-192.5 242,-192.5"/>
<text text-anchor="start" x="377" y="-199.3" font-family="Times,serif" font-size="14.00">value=+</text>
<polygon fill="none" stroke="black" points="242,-163.5 242,-192.5 575,-192.5 575,-163.5 242,-163.5"/>
<polygon fill="#d96107" fill-opacity="0.678431" stroke="transparent" points="247,-168.5 247,-187.5 397,-187.5 397,-168.5 247,-168.5"/>
<text text-anchor="start" x="249" y="-174.3" font-family="Times,serif" font-size="14.00">Да &#45; 75FB9F5E0110</text>
<text text-anchor="start" x="401" y="-175.5" font-family="Times,serif" font-size="10.00">│</text>
<polygon fill="#f0fcc5" fill-opacity="0.250980" stroke="transparent" points="412,-168.5 412,-187.5 570,-187.5 570,-168.5 412,-168.5"/>
<text text-anchor="start" x="414" y="-174.3" font-family="Times,serif" font-size="14.00">Нет &#45; 75FB9F5E0150</text>
<polygon fill="none" stroke="black" points="240.5,-163 240.5,-278 575.5,-278 575.5,-163 240.5,-163"/>
</g>
<!-- node_75FB9F5E0050&#45;&gt;node_75FB9F5E00D0 -->
<g id="edge2" class="edge">
<title>node_75FB9F5E0050:s&#45;&gt;node_75FB9F5E00D0</title>
<path fill="none" stroke="black" d="M343,-326.5C343,-326.5 352.96,-310.42 365.07,-290.84"/>
<polygon fill="black" stroke="black" points="368.09,-292.62 370.38,-282.27 362.14,-288.94 368.09,-292.62"/>
</g>
<!-- node_75FB9F5E0110 -->
<g id="node4" class="node">
<title>node_75FB9F5E0110</title>
<polygon fill="#b6b4b4" stroke="transparent" points="397,-123 181,-123 181,0 397,0 397,-123"/>
<polygon fill="#d96107" fill-opacity="0.678431" stroke="transparent" points="190,-96.5 190,-117.5 388,-117.5 388,-96.5 190,-96.5"/>
<polygon fill="none" stroke="black" points="190,-96.5 190,-117.5 388,-117.5 388,-96.5 190,-96.5"/>
<text text-anchor="start" x="207" y="-103.3" font-family="Times,serif" font-size="14.00">idx=0x75FB9F5E0110</text>
<polygon fill="#5b04b2" fill-opacity="0.054902" stroke="transparent" points="190,-75.5 190,-96.5 388,-96.5 388,-75.5 190,-75.5"/>
<polygon fill="none" stroke="black" points="190,-75.5 190,-96.5 388,-96.5 388,-75.5 190,-75.5"/>
<text text-anchor="start" x="193" y="-82.3" font-family="Times,serif" font-size="14.00">parent=0x75FB9F5E00D0</text>
<polygon fill="none" stroke="black" points="190,-54.5 190,-75.5 388,-75.5 388,-54.5 190,-54.5"/>
<text text-anchor="start" x="230" y="-61.3" font-family="Times,serif" font-size="14.00">type=VARIABLE</text>
<polygon fill="none" stroke="black" points="190,-33.5 190,-54.5 388,-54.5 388,-33.5 190,-33.5"/>
<text text-anchor="start" x="259.5" y="-40.3" font-family="Times,serif" font-size="14.00">value=y</text>
<polygon fill="none" stroke="black" points="190,-4.5 190,-33.5 388,-33.5 388,-4.5 190,-4.5"/>
<polygon fill="#b6b4b4" stroke="transparent" points="195,-9.5 195,-28.5 265,-28.5 265,-9.5 195,-9.5"/>
<text text-anchor="start" x="214" y="-15.3" font-family="Times,serif" font-size="14.00">0 &#45; 0</text>
<text text-anchor="start" x="286" y="-16.5" font-family="Times,serif" font-size="10.00">│</text>
<polygon fill="#b6b4b4" stroke="transparent" points="314,-9.5 314,-28.5 383,-28.5 383,-9.5 314,-9.5"/>
<text text-anchor="start" x="332.5" y="-15.3" font-family="Times,serif" font-size="14.00">0 &#45; 0</text>
<polygon fill="none" stroke="black" points="189,-4 189,-119 389,-119 389,-4 189,-4"/>
</g>
<!-- node_75FB9F5E00D0&#45;&gt;node_75FB9F5E0110 -->
<g id="edge3" class="edge">
<title>node_75FB9F5E00D0:s&#45;&gt;node_75FB9F5E0110</title>
<path fill="none" stroke="black" d="M322,-167.5C322,-167.5 317.12,-151.99 311.12,-132.89"/>
<polygon fill="black" stroke="black" points="314.44,-131.77 308.1,-123.27 307.76,-133.86 314.44,-131.77"/>
</g>
<!-- node_75FB9F5E0150 -->
<g id="node5" class="node">
<title>node_75FB9F5E0150</title>
<polygon fill="#b6b4b4" stroke="transparent" points="631,-123 415,-123 415,0 631,0 631,-123"/>
<polygon fill="#f0fcc5" fill-opacity="0.250980" stroke="transparent" points="424,-96.5 424,-117.5 622,-117.5 622,-96.5 424,-96.5"/>
<polygon fill="none" stroke="black" points="424,-96.5 424,-117.5 622,-117.5 622,-96.5 424,-96.5"/>
<text text-anchor="start" x="441" y="-103.3" font-family="Times,serif" font-size="14.00">idx=0x75FB9F5E0150</text>
<polygon fill="#5b04b2" fill-opacity="0.054902" stroke="transparent" points="424,-75.5 424,-96.5 622,-96.5 622,-75.5 424,-75.5"/>
<polygon fill="none" stroke="black" points="424,-75.5 424,-96.5 622,-96.5 622,-75.5 424,-75.5"/>
<text text-anchor="start" x="427" y="-82.3" font-family="Times,serif" font-size="14.00">parent=0x75FB9F5E00D0</text>
<polygon fill="none" stroke="black" points="424,-54.5 424,-75.5 622,-75.5 622,-54.5 424,-54.5"/>
<text text-anchor="start" x="466" y="-61.3" font-family="Times,serif" font-size="14.00">type=NUMBER</text>
<polygon fill="none" stroke="black" points="424,-33.5 424,-54.5 622,-54.5 622,-33.5 424,-33.5"/>
<text text-anchor="start" x="493" y="-40.3" font-family="Times,serif" font-size="14.00">value=6</text>
<polygon fill="none" stroke="black" points="424,-4.5 424,-33.5 622,-33.5 622,-4.5 424,-4.5"/>
<polygon fill="#b6b4b4" stroke="transparent" points="429,-9.5 429,-28.5 499,-28.5 499,-9.5 429,-9.5"/>
<text text-anchor="start" x="448" y="-15.3" font-family="Times,serif" font-size="14.00">0 &#45; 0</text>
<text text-anchor="start" x="520" y="-16.5" font-family="Times,serif" font-size="10.00">│</text>
<polygon fill="#b6b4b4" stroke="transparent" points="548,-9.5 548,-28.5 617,-28.5 617,-9.5 548,-9.5"/>
<text text-anchor="start" x="566.5" y="-15.3" font-family="Times,serif" font-size="14.00">0 &#45; 0</text>
<polygon fill="none" stroke="black" points="423,-4 423,-119 623,-119 623,-4 423,-4"/>
</g>
<!-- node_75FB9F5E00D0&#45;&gt;node_75FB9F5E0150 -->
<g id="edge4" class="edge">
<title>node_75FB9F5E00D0:s&#45;&gt;node_75FB9F5E0150</title>
<path fill="none" stroke="black" d="M491,-167.5C491,-167.5 495.73,-151.99 501.55,-132.89"/>
<polygon fill="black" stroke="black" points="504.91,-133.86 504.48,-123.27 498.21,-131.82 504.91,-133.86"/>
</g>
</g>
</svg>
