<?xml version="1.0" encoding="UTF-8" standalone="no"?>
<!DOCTYPE svg PUBLIC "-//W3C//DTD SVG 1.1//EN"
 "http://www.w3.org/Graphics/SVG/1.1/DTD/svg11.dtd">
<!-- Generated by graphviz version 2.42.4 (0)
 -->
<!-- Pages: 1 -->
<svg width="170pt" height="260pt"
 viewBox="0.00 0.00 170.00 260.00" xmlns="http://www.w3.org/2000/svg" xmlns:xlink="http://www.w3.org/1999/xlink">
<g id="graph0" class="graph" transform="scale(1 1) rotate(0) translate(4 256)">
<polygon fill="white" stroke="transparent" points="-4,4 -4,-256 166,-256 166,4 -4,4"/>
<!-- node_0x72a0e09e0010 -->
<g id="node1" class="node">
<title>node_0x72a0e09e0010</title>
<ellipse fill="#f5b041" stroke="black" cx="99" cy="-234" rx="27" ry="18"/>
<text text-anchor="middle" x="99" y="-230.3" font-family="Times,serif" font-size="14.00">log</text>
</g>
<!-- node_0x72a0e09e0050 -->
<g id="node2" class="node">
<title>node_0x72a0e09e0050</title>
<ellipse fill="#f5b041" stroke="black" cx="63" cy="-162" rx="27" ry="18"/>
<text text-anchor="middle" x="63" y="-158.3" font-family="Times,serif" font-size="14.00">*</text>
</g>
<!-- node_0x72a0e09e0010&#45;&gt;node_0x72a0e09e0050 -->
<g id="edge1" class="edge">
<title>node_0x72a0e09e0010&#45;&gt;node_0x72a0e09e0050</title>
<path fill="none" stroke="black" d="M90.65,-216.76C86.29,-208.28 80.85,-197.71 75.96,-188.2"/>
<polygon fill="black" stroke="black" points="78.99,-186.44 71.3,-179.15 72.77,-189.64 78.99,-186.44"/>
</g>
<!-- node_0x72a0e09e0190 -->
<g id="node7" class="node">
<title>node_0x72a0e09e0190</title>
<ellipse fill="#5dade2" stroke="black" cx="135" cy="-162" rx="27" ry="18"/>
<text text-anchor="middle" x="135" y="-158.3" font-family="Times,serif" font-size="14.00">10</text>
</g>
<!-- node_0x72a0e09e0010&#45;&gt;node_0x72a0e09e0190 -->
<g id="edge6" class="edge">
<title>node_0x72a0e09e0010&#45;&gt;node_0x72a0e09e0190</title>
<path fill="none" stroke="black" d="M107.35,-216.76C111.71,-208.28 117.15,-197.71 122.04,-188.2"/>
<polygon fill="black" stroke="black" points="125.23,-189.64 126.7,-179.15 119.01,-186.44 125.23,-189.64"/>
</g>
<!-- node_0x72a0e09e0090 -->
<g id="node3" class="node">
<title>node_0x72a0e09e0090</title>
<ellipse fill="#82e0aa" stroke="black" cx="27" cy="-90" rx="27" ry="18"/>
<text text-anchor="middle" x="27" y="-86.3" font-family="Times,serif" font-size="14.00">x</text>
</g>
<!-- node_0x72a0e09e0050&#45;&gt;node_0x72a0e09e0090 -->
<g id="edge2" class="edge">
<title>node_0x72a0e09e0050&#45;&gt;node_0x72a0e09e0090</title>
<path fill="none" stroke="black" d="M54.65,-144.76C50.29,-136.28 44.85,-125.71 39.96,-116.2"/>
<polygon fill="black" stroke="black" points="42.99,-114.44 35.3,-107.15 36.77,-117.64 42.99,-114.44"/>
</g>
<!-- node_0x72a0e09e00d0 -->
<g id="node4" class="node">
<title>node_0x72a0e09e00d0</title>
<ellipse fill="#f5b041" stroke="black" cx="99" cy="-90" rx="27" ry="18"/>
<text text-anchor="middle" x="99" y="-86.3" font-family="Times,serif" font-size="14.00">+</text>
</g>
<!-- node_0x72a0e09e0050&#45;&gt;node_0x72a0e09e00d0 -->
<g id="edge3" class="edge">
<title>node_0x72a0e09e0050&#45;&gt;node_0x72a0e09e00d0</title>
<path fill="none" stroke="black" d="M71.35,-144.76C75.71,-136.28 81.15,-125.71 86.04,-116.2"/>
<polygon fill="black" stroke="black" points="89.23,-117.64 90.7,-107.15 83.01,-114.44 89.23,-117.64"/>
</g>
<!-- node_0x72a0e09e0110 -->
<g id="node5" class="node">
<title>node_0x72a0e09e0110</title>
<ellipse fill="#82e0aa" stroke="black" cx="63" cy="-18" rx="27" ry="18"/>
<text text-anchor="middle" x="63" y="-14.3" font-family="Times,serif" font-size="14.00">x</text>
</g>
<!-- node_0x72a0e09e00d0&#45;&gt;node_0x72a0e09e0110 -->
<g id="edge4" class="edge">
<title>node_0x72a0e09e00d0&#45;&gt;node_0x72a0e09e0110</title>
<path fill="none" stroke="black" d="M90.65,-72.76C86.29,-64.28 80.85,-53.71 75.96,-44.2"/>
<polygon fill="black" stroke="black" points="78.99,-42.44 71.3,-35.15 72.77,-45.64 78.99,-42.44"/>
</g>
<!-- node_0x72a0e09e0150 -->
<g id="node6" class="node">
<title>node_0x72a0e09e0150</title>
<ellipse fill="#5dade2" stroke="black" cx="135" cy="-18" rx="27" ry="18"/>
<text text-anchor="middle" x="135" y="-14.3" font-family="Times,serif" font-size="14.00">10</text>
</g>
<!-- node_0x72a0e09e00d0&#45;&gt;node_0x72a0e09e0150 -->
<g id="edge5" class="edge">
<title>node_0x72a0e09e00d0&#45;&gt;node_0x72a0e09e0150</title>
<path fill="none" stroke="black" d="M107.35,-72.76C111.71,-64.28 117.15,-53.71 122.04,-44.2"/>
<polygon fill="black" stroke="black" points="125.23,-45.64 126.7,-35.15 119.01,-42.44 125.23,-45.64"/>
</g>
</g>
</svg>
