<?xml version="1.0" encoding="UTF-8" standalone="no"?>
<!DOCTYPE svg PUBLIC "-//W3C//DTD SVG 1.1//EN"
 "http://www.w3.org/Graphics/SVG/1.1/DTD/svg11.dtd">
<!-- Generated by graphviz version 2.42.4 (0)
 -->
<!-- Pages: 1 -->
<svg width="639pt" height="449pt"
 viewBox="0.00 0.00 639.00 449.00" xmlns="http://www.w3.org/2000/svg" xmlns:xlink="http://www.w3.org/1999/xlink">
<g id="graph0" class="graph" transform="scale(1 1) rotate(0) translate(4 445)">
<polygon fill="white" stroke="transparent" points="-4,4 -4,-445 635,-445 635,4 -4,4"/>
<!-- node_7B918B1E0010 -->
<g id="node1" class="node">
<title>node_7B918B1E0010</title>
<polygon fill="#b6b4b4" stroke="transparent" points="434.5,-441 83.5,-441 83.5,-318 434.5,-318 434.5,-441"/>
<polygon fill="#bb2b0d" fill-opacity="0.352941" stroke="transparent" points="93,-414.5 93,-435.5 426,-435.5 426,-414.5 93,-414.5"/>
<polygon fill="none" stroke="black" points="93,-414.5 93,-435.5 426,-435.5 426,-414.5 93,-414.5"/>
<text text-anchor="start" x="177.5" y="-421.3" font-family="Times,serif" font-size="14.00">idx=0x7B918B1E0010</text>
<polygon fill="#6522df" fill-opacity="0.411765" stroke="transparent" points="93,-393.5 93,-414.5 426,-414.5 426,-393.5 93,-393.5"/>
<polygon fill="none" stroke="black" points="93,-393.5 93,-414.5 426,-414.5 426,-393.5 93,-393.5"/>
<text text-anchor="start" x="216.5" y="-400.3" font-family="Times,serif" font-size="14.00">parent=0x0</text>
<polygon fill="none" stroke="black" points="93,-372.5 93,-393.5 426,-393.5 426,-372.5 93,-372.5"/>
<text text-anchor="start" x="202.5" y="-379.3" font-family="Times,serif" font-size="14.00">type=NUMBER</text>
<polygon fill="none" stroke="black" points="93,-351.5 93,-372.5 426,-372.5 426,-351.5 93,-351.5"/>
<text text-anchor="start" x="230.5" y="-358.3" font-family="Times,serif" font-size="14.00">value=*</text>
<polygon fill="none" stroke="black" points="93,-322.5 93,-351.5 426,-351.5 426,-322.5 93,-322.5"/>
<polygon fill="#92b6cf" fill-opacity="0.717647" stroke="transparent" points="98,-327.5 98,-346.5 248,-346.5 248,-327.5 98,-327.5"/>
<text text-anchor="start" x="100" y="-333.3" font-family="Times,serif" font-size="14.00">Да &#45; 7B918B1E0050</text>
<text text-anchor="start" x="252" y="-334.5" font-family="Times,serif" font-size="10.00">│</text>
<polygon fill="#e81088" fill-opacity="0.501961" stroke="transparent" points="263,-327.5 263,-346.5 421,-346.5 421,-327.5 263,-327.5"/>
<text text-anchor="start" x="265" y="-333.3" font-family="Times,serif" font-size="14.00">Нет &#45; 7B918B1E0090</text>
<polygon fill="none" stroke="black" points="91.5,-322 91.5,-437 426.5,-437 426.5,-322 91.5,-322"/>
</g>
<!-- node_7B918B1E0050 -->
<g id="node2" class="node">
<title>node_7B918B1E0050</title>
<polygon fill="#b6b4b4" stroke="transparent" points="214,-282 0,-282 0,-159 214,-159 214,-282"/>
<polygon fill="#92b6cf" fill-opacity="0.717647" stroke="transparent" points="9,-255.5 9,-276.5 205,-276.5 205,-255.5 9,-255.5"/>
<polygon fill="none" stroke="black" points="9,-255.5 9,-276.5 205,-276.5 205,-255.5 9,-255.5"/>
<text text-anchor="start" x="25" y="-262.3" font-family="Times,serif" font-size="14.00">idx=0x7B918B1E0050</text>
<polygon fill="#bb2b0d" fill-opacity="0.352941" stroke="transparent" points="9,-234.5 9,-255.5 205,-255.5 205,-234.5 9,-234.5"/>
<polygon fill="none" stroke="black" points="9,-234.5 9,-255.5 205,-255.5 205,-234.5 9,-234.5"/>
<text text-anchor="start" x="12" y="-241.3" font-family="Times,serif" font-size="14.00">parent=0x7B918B1E0010</text>
<polygon fill="none" stroke="black" points="9,-213.5 9,-234.5 205,-234.5 205,-213.5 9,-213.5"/>
<text text-anchor="start" x="48" y="-220.3" font-family="Times,serif" font-size="14.00">type=VARIABLE</text>
<polygon fill="none" stroke="black" points="9,-192.5 9,-213.5 205,-213.5 205,-192.5 9,-192.5"/>
<text text-anchor="start" x="77.5" y="-199.3" font-family="Times,serif" font-size="14.00">value=x</text>
<polygon fill="none" stroke="black" points="9,-163.5 9,-192.5 205,-192.5 205,-163.5 9,-163.5"/>
<polygon fill="#b6b4b4" stroke="transparent" points="14,-168.5 14,-187.5 83,-187.5 83,-168.5 14,-168.5"/>
<text text-anchor="start" x="32.5" y="-174.3" font-family="Times,serif" font-size="14.00">0 &#45; 0</text>
<text text-anchor="start" x="103.5" y="-175.5" font-family="Times,serif" font-size="10.00">│</text>
<polygon fill="#b6b4b4" stroke="transparent" points="131,-168.5 131,-187.5 200,-187.5 200,-168.5 131,-168.5"/>
<text text-anchor="start" x="149.5" y="-174.3" font-family="Times,serif" font-size="14.00">0 &#45; 0</text>
<polygon fill="none" stroke="black" points="8,-163 8,-278 206,-278 206,-163 8,-163"/>
</g>
<!-- node_7B918B1E0010&#45;&gt;node_7B918B1E0050 -->
<g id="edge1" class="edge">
<title>node_7B918B1E0010:s&#45;&gt;node_7B918B1E0050</title>
<path fill="none" stroke="black" d="M173,-326.5C173,-326.5 162.89,-310.42 150.59,-290.84"/>
<polygon fill="black" stroke="black" points="153.49,-288.88 145.2,-282.27 147.56,-292.6 153.49,-288.88"/>
</g>
<!-- node_7B918B1E0090 -->
<g id="node3" class="node">
<title>node_7B918B1E0090</title>
<polygon fill="#b6b4b4" stroke="transparent" points="585.5,-282 232.5,-282 232.5,-159 585.5,-159 585.5,-282"/>
<polygon fill="#e81088" fill-opacity="0.501961" stroke="transparent" points="242,-255.5 242,-276.5 577,-276.5 577,-255.5 242,-255.5"/>
<polygon fill="none" stroke="black" points="242,-255.5 242,-276.5 577,-276.5 577,-255.5 242,-255.5"/>
<text text-anchor="start" x="327.5" y="-262.3" font-family="Times,serif" font-size="14.00">idx=0x7B918B1E0090</text>
<polygon fill="#bb2b0d" fill-opacity="0.352941" stroke="transparent" points="242,-234.5 242,-255.5 577,-255.5 577,-234.5 242,-234.5"/>
<polygon fill="none" stroke="black" points="242,-234.5 242,-255.5 577,-255.5 577,-234.5 242,-234.5"/>
<text text-anchor="start" x="314.5" y="-241.3" font-family="Times,serif" font-size="14.00">parent=0x7B918B1E0010</text>
<polygon fill="none" stroke="black" points="242,-213.5 242,-234.5 577,-234.5 577,-213.5 242,-213.5"/>
<text text-anchor="start" x="352.5" y="-220.3" font-family="Times,serif" font-size="14.00">type=NUMBER</text>
<polygon fill="none" stroke="black" points="242,-192.5 242,-213.5 577,-213.5 577,-192.5 242,-192.5"/>
<text text-anchor="start" x="378" y="-199.3" font-family="Times,serif" font-size="14.00">value=+</text>
<polygon fill="none" stroke="black" points="242,-163.5 242,-192.5 577,-192.5 577,-163.5 242,-163.5"/>
<polygon fill="#c18d4a" fill-opacity="0.427451" stroke="transparent" points="247,-168.5 247,-187.5 399,-187.5 399,-168.5 247,-168.5"/>
<text text-anchor="start" x="249" y="-174.3" font-family="Times,serif" font-size="14.00">Да &#45; 7B918B1E00D0</text>
<text text-anchor="start" x="403" y="-175.5" font-family="Times,serif" font-size="10.00">│</text>
<polygon fill="#1d5c06" fill-opacity="0.933333" stroke="transparent" points="414,-168.5 414,-187.5 572,-187.5 572,-168.5 414,-168.5"/>
<text text-anchor="start" x="416" y="-174.3" font-family="Times,serif" font-size="14.00">Нет &#45; 7B918B1E0110</text>
<polygon fill="none" stroke="black" points="240.5,-163 240.5,-278 577.5,-278 577.5,-163 240.5,-163"/>
</g>
<!-- node_7B918B1E0010&#45;&gt;node_7B918B1E0090 -->
<g id="edge2" class="edge">
<title>node_7B918B1E0010:s&#45;&gt;node_7B918B1E0090</title>
<path fill="none" stroke="black" d="M342,-326.5C342,-326.5 352.26,-310.42 364.75,-290.84"/>
<polygon fill="black" stroke="black" points="367.79,-292.59 370.22,-282.27 361.89,-288.82 367.79,-292.59"/>
</g>
<!-- node_7B918B1E00D0 -->
<g id="node4" class="node">
<title>node_7B918B1E00D0</title>
<polygon fill="#b6b4b4" stroke="transparent" points="399,-123 185,-123 185,0 399,0 399,-123"/>
<polygon fill="#c18d4a" fill-opacity="0.427451" stroke="transparent" points="194,-96.5 194,-117.5 390,-117.5 390,-96.5 194,-96.5"/>
<polygon fill="none" stroke="black" points="194,-96.5 194,-117.5 390,-117.5 390,-96.5 194,-96.5"/>
<text text-anchor="start" x="209" y="-103.3" font-family="Times,serif" font-size="14.00">idx=0x7B918B1E00D0</text>
<polygon fill="#e81088" fill-opacity="0.501961" stroke="transparent" points="194,-75.5 194,-96.5 390,-96.5 390,-75.5 194,-75.5"/>
<polygon fill="none" stroke="black" points="194,-75.5 194,-96.5 390,-96.5 390,-75.5 194,-75.5"/>
<text text-anchor="start" x="197" y="-82.3" font-family="Times,serif" font-size="14.00">parent=0x7B918B1E0090</text>
<polygon fill="none" stroke="black" points="194,-54.5 194,-75.5 390,-75.5 390,-54.5 194,-54.5"/>
<text text-anchor="start" x="233" y="-61.3" font-family="Times,serif" font-size="14.00">type=VARIABLE</text>
<polygon fill="none" stroke="black" points="194,-33.5 194,-54.5 390,-54.5 390,-33.5 194,-33.5"/>
<text text-anchor="start" x="262.5" y="-40.3" font-family="Times,serif" font-size="14.00">value=y</text>
<polygon fill="none" stroke="black" points="194,-4.5 194,-33.5 390,-33.5 390,-4.5 194,-4.5"/>
<polygon fill="#b6b4b4" stroke="transparent" points="199,-9.5 199,-28.5 268,-28.5 268,-9.5 199,-9.5"/>
<text text-anchor="start" x="217.5" y="-15.3" font-family="Times,serif" font-size="14.00">0 &#45; 0</text>
<text text-anchor="start" x="288.5" y="-16.5" font-family="Times,serif" font-size="10.00">│</text>
<polygon fill="#b6b4b4" stroke="transparent" points="316,-9.5 316,-28.5 385,-28.5 385,-9.5 316,-9.5"/>
<text text-anchor="start" x="334.5" y="-15.3" font-family="Times,serif" font-size="14.00">0 &#45; 0</text>
<polygon fill="none" stroke="black" points="193,-4 193,-119 391,-119 391,-4 193,-4"/>
</g>
<!-- node_7B918B1E0090&#45;&gt;node_7B918B1E00D0 -->
<g id="edge3" class="edge">
<title>node_7B918B1E0090:s&#45;&gt;node_7B918B1E00D0</title>
<path fill="none" stroke="black" d="M323,-167.5C323,-167.5 318.42,-151.99 312.78,-132.89"/>
<polygon fill="black" stroke="black" points="316.13,-131.87 309.94,-123.27 309.42,-133.86 316.13,-131.87"/>
</g>
<!-- node_7B918B1E0110 -->
<g id="node5" class="node">
<title>node_7B918B1E0110</title>
<polygon fill="#b6b4b4" stroke="transparent" points="631,-123 417,-123 417,0 631,0 631,-123"/>
<polygon fill="#1d5c06" fill-opacity="0.933333" stroke="transparent" points="426,-96.5 426,-117.5 622,-117.5 622,-96.5 426,-96.5"/>
<polygon fill="none" stroke="black" points="426,-96.5 426,-117.5 622,-117.5 622,-96.5 426,-96.5"/>
<text text-anchor="start" x="442" y="-103.3" font-family="Times,serif" font-size="14.00">idx=0x7B918B1E0110</text>
<polygon fill="#e81088" fill-opacity="0.501961" stroke="transparent" points="426,-75.5 426,-96.5 622,-96.5 622,-75.5 426,-75.5"/>
<polygon fill="none" stroke="black" points="426,-75.5 426,-96.5 622,-96.5 622,-75.5 426,-75.5"/>
<text text-anchor="start" x="429" y="-82.3" font-family="Times,serif" font-size="14.00">parent=0x7B918B1E0090</text>
<polygon fill="none" stroke="black" points="426,-54.5 426,-75.5 622,-75.5 622,-54.5 426,-54.5"/>
<text text-anchor="start" x="467" y="-61.3" font-family="Times,serif" font-size="14.00">type=NUMBER</text>
<polygon fill="none" stroke="black" points="426,-33.5 426,-54.5 622,-54.5 622,-33.5 426,-33.5"/>
<text text-anchor="start" x="494" y="-40.3" font-family="Times,serif" font-size="14.00">value=6</text>
<polygon fill="none" stroke="black" points="426,-4.5 426,-33.5 622,-33.5 622,-4.5 426,-4.5"/>
<polygon fill="#b6b4b4" stroke="transparent" points="431,-9.5 431,-28.5 500,-28.5 500,-9.5 431,-9.5"/>
<text text-anchor="start" x="449.5" y="-15.3" font-family="Times,serif" font-size="14.00">0 &#45; 0</text>
<text text-anchor="start" x="520.5" y="-16.5" font-family="Times,serif" font-size="10.00">│</text>
<polygon fill="#b6b4b4" stroke="transparent" points="548,-9.5 548,-28.5 617,-28.5 617,-9.5 548,-9.5"/>
<text text-anchor="start" x="566.5" y="-15.3" font-family="Times,serif" font-size="14.00">0 &#45; 0</text>
<polygon fill="none" stroke="black" points="425,-4 425,-119 623,-119 623,-4 425,-4"/>
</g>
<!-- node_7B918B1E0090&#45;&gt;node_7B918B1E0110 -->
<g id="edge4" class="edge">
<title>node_7B918B1E0090:s&#45;&gt;node_7B918B1E0110</title>
<path fill="none" stroke="black" d="M493,-167.5C493,-167.5 497.58,-151.99 503.22,-132.89"/>
<polygon fill="black" stroke="black" points="506.58,-133.86 506.06,-123.27 499.87,-131.87 506.58,-133.86"/>
</g>
</g>
</svg>
