<?xml version="1.0" encoding="UTF-8" standalone="no"?>
<!DOCTYPE svg PUBLIC "-//W3C//DTD SVG 1.1//EN"
 "http://www.w3.org/Graphics/SVG/1.1/DTD/svg11.dtd">
<!-- Generated by graphviz version 2.42.4 (0)
 -->
<!-- Pages: 1 -->
<svg width="221pt" height="131pt"
 viewBox="0.00 0.00 221.00 131.00" xmlns="http://www.w3.org/2000/svg" xmlns:xlink="http://www.w3.org/1999/xlink">
<g id="graph0" class="graph" transform="scale(1 1) rotate(0) translate(4 127)">
<polygon fill="white" stroke="transparent" points="-4,4 -4,-127 217,-127 217,4 -4,4"/>
<!-- node_7515A6BE0050 -->
<g id="node1" class="node">
<title>node_7515A6BE0050</title>
<polygon fill="#b6b4b4" stroke="transparent" points="213,-123 0,-123 0,0 213,0 213,-123"/>
<polygon fill="#da5e39" fill-opacity="0.541176" stroke="transparent" points="9.5,-96.5 9.5,-117.5 204.5,-117.5 204.5,-96.5 9.5,-96.5"/>
<polygon fill="none" stroke="black" points="9.5,-96.5 9.5,-117.5 204.5,-117.5 204.5,-96.5 9.5,-96.5"/>
<text text-anchor="start" x="25.5" y="-103.3" font-family="Times,serif" font-size="14.00">idx=0x7515A6BE0050</text>
<polygon fill="#f3c3fb" fill-opacity="0.403922" stroke="transparent" points="9.5,-75.5 9.5,-96.5 204.5,-96.5 204.5,-75.5 9.5,-75.5"/>
<polygon fill="none" stroke="black" points="9.5,-75.5 9.5,-96.5 204.5,-96.5 204.5,-75.5 9.5,-75.5"/>
<text text-anchor="start" x="12.5" y="-82.3" font-family="Times,serif" font-size="14.00">parent=0x7515A6BE0010</text>
<polygon fill="none" stroke="black" points="9.5,-54.5 9.5,-75.5 204.5,-75.5 204.5,-54.5 9.5,-54.5"/>
<text text-anchor="start" x="48" y="-61.3" font-family="Times,serif" font-size="14.00">type=VARIABLE</text>
<polygon fill="none" stroke="black" points="9.5,-33.5 9.5,-54.5 204.5,-54.5 204.5,-33.5 9.5,-33.5"/>
<text text-anchor="start" x="77.5" y="-40.3" font-family="Times,serif" font-size="14.00">value=x</text>
<polygon fill="none" stroke="black" points="9.5,-4.5 9.5,-33.5 204.5,-33.5 204.5,-4.5 9.5,-4.5"/>
<polygon fill="#b6b4b4" stroke="transparent" points="14.5,-9.5 14.5,-28.5 76.5,-28.5 76.5,-9.5 14.5,-9.5"/>
<text text-anchor="start" x="40.5" y="-15.3" font-family="Times,serif" font-size="14.00">0</text>
<text text-anchor="start" x="104" y="-16.5" font-family="Times,serif" font-size="10.00">│</text>
<polygon fill="#b6b4b4" stroke="transparent" points="138.5,-9.5 138.5,-28.5 199.5,-28.5 199.5,-9.5 138.5,-9.5"/>
<text text-anchor="start" x="164" y="-15.3" font-family="Times,serif" font-size="14.00">0</text>
<polygon fill="none" stroke="black" points="8,-4 8,-119 205,-119 205,-4 8,-4"/>
</g>
</g>
</svg>
