<?xml version="1.0" encoding="UTF-8" standalone="no"?>
<!DOCTYPE svg PUBLIC "-//W3C//DTD SVG 1.1//EN"
 "http://www.w3.org/Graphics/SVG/1.1/DTD/svg11.dtd">
<!-- Generated by graphviz version 2.42.4 (0)
 -->
<!-- Pages: 1 -->
<svg width="222pt" height="131pt"
 viewBox="0.00 0.00 222.00 131.00" xmlns="http://www.w3.org/2000/svg" xmlns:xlink="http://www.w3.org/1999/xlink">
<g id="graph0" class="graph" transform="scale(1 1) rotate(0) translate(4 127)">
<polygon fill="white" stroke="transparent" points="-4,4 -4,-127 218,-127 218,4 -4,4"/>
<!-- node_7532BE9E0050 -->
<g id="node1" class="node">
<title>node_7532BE9E0050</title>
<polygon fill="#b6b4b4" stroke="transparent" points="214,-123 0,-123 0,0 214,0 214,-123"/>
<polygon fill="#b08777" fill-opacity="0.470588" stroke="transparent" points="9,-96.5 9,-117.5 205,-117.5 205,-96.5 9,-96.5"/>
<polygon fill="none" stroke="black" points="9,-96.5 9,-117.5 205,-117.5 205,-96.5 9,-96.5"/>
<text text-anchor="start" x="25" y="-103.3" font-family="Times,serif" font-size="14.00">idx=0x7532BE9E0050</text>
<polygon fill="#991ab5" fill-opacity="0.584314" stroke="transparent" points="9,-75.5 9,-96.5 205,-96.5 205,-75.5 9,-75.5"/>
<polygon fill="none" stroke="black" points="9,-75.5 9,-96.5 205,-96.5 205,-75.5 9,-75.5"/>
<text text-anchor="start" x="12" y="-82.3" font-family="Times,serif" font-size="14.00">parent=0x7532BE9E0010</text>
<polygon fill="none" stroke="black" points="9,-54.5 9,-75.5 205,-75.5 205,-54.5 9,-54.5"/>
<text text-anchor="start" x="48" y="-61.3" font-family="Times,serif" font-size="14.00">type=VARIABLE</text>
<polygon fill="none" stroke="black" points="9,-33.5 9,-54.5 205,-54.5 205,-33.5 9,-33.5"/>
<text text-anchor="start" x="77.5" y="-40.3" font-family="Times,serif" font-size="14.00">value=x</text>
<polygon fill="none" stroke="black" points="9,-4.5 9,-33.5 205,-33.5 205,-4.5 9,-4.5"/>
<polygon fill="#b6b4b4" stroke="transparent" points="14,-9.5 14,-28.5 76,-28.5 76,-9.5 14,-9.5"/>
<text text-anchor="start" x="40" y="-15.3" font-family="Times,serif" font-size="14.00">0</text>
<text text-anchor="start" x="104" y="-16.5" font-family="Times,serif" font-size="10.00">│</text>
<polygon fill="#b6b4b4" stroke="transparent" points="139,-9.5 139,-28.5 200,-28.5 200,-9.5 139,-9.5"/>
<text text-anchor="start" x="164.5" y="-15.3" font-family="Times,serif" font-size="14.00">0</text>
<polygon fill="none" stroke="black" points="8,-4 8,-119 206,-119 206,-4 8,-4"/>
</g>
</g>
</svg>
