<?xml version="1.0" encoding="UTF-8" standalone="no"?>
<!DOCTYPE svg PUBLIC "-//W3C//DTD SVG 1.1//EN"
 "http://www.w3.org/Graphics/SVG/1.1/DTD/svg11.dtd">
<!-- Generated by graphviz version 2.42.4 (0)
 -->
<!-- Pages: 1 -->
<svg width="634pt" height="449pt"
 viewBox="0.00 0.00 634.00 449.00" xmlns="http://www.w3.org/2000/svg" xmlns:xlink="http://www.w3.org/1999/xlink">
<g id="graph0" class="graph" transform="scale(1 1) rotate(0) translate(4 445)">
<polygon fill="white" stroke="transparent" points="-4,4 -4,-445 630,-445 630,4 -4,4"/>
<!-- node_6E19627E0010 -->
<g id="node1" class="node">
<title>node_6E19627E0010</title>
<polygon fill="#b6b4b4" stroke="transparent" points="431.5,-441 82.5,-441 82.5,-318 431.5,-318 431.5,-441"/>
<polygon fill="#a41b58" fill-opacity="0.882353" stroke="transparent" points="92,-414.5 92,-435.5 423,-435.5 423,-414.5 92,-414.5"/>
<polygon fill="none" stroke="black" points="92,-414.5 92,-435.5 423,-435.5 423,-414.5 92,-414.5"/>
<text text-anchor="start" x="176" y="-421.3" font-family="Times,serif" font-size="14.00">idx=0x6E19627E0010</text>
<polygon fill="#6522df" fill-opacity="0.411765" stroke="transparent" points="92,-393.5 92,-414.5 423,-414.5 423,-393.5 92,-393.5"/>
<polygon fill="none" stroke="black" points="92,-393.5 92,-414.5 423,-414.5 423,-393.5 92,-393.5"/>
<text text-anchor="start" x="214.5" y="-400.3" font-family="Times,serif" font-size="14.00">parent=0x0</text>
<polygon fill="none" stroke="black" points="92,-372.5 92,-393.5 423,-393.5 423,-372.5 92,-372.5"/>
<text text-anchor="start" x="200.5" y="-379.3" font-family="Times,serif" font-size="14.00">type=NUMBER</text>
<polygon fill="none" stroke="black" points="92,-351.5 92,-372.5 423,-372.5 423,-351.5 92,-351.5"/>
<text text-anchor="start" x="228.5" y="-358.3" font-family="Times,serif" font-size="14.00">value=*</text>
<polygon fill="none" stroke="black" points="92,-322.5 92,-351.5 423,-351.5 423,-322.5 92,-322.5"/>
<polygon fill="#8d869a" fill-opacity="0.047059" stroke="transparent" points="97,-327.5 97,-346.5 246,-346.5 246,-327.5 97,-327.5"/>
<text text-anchor="start" x="99" y="-333.3" font-family="Times,serif" font-size="14.00">Да &#45; 6E19627E0050</text>
<text text-anchor="start" x="250" y="-334.5" font-family="Times,serif" font-size="10.00">│</text>
<polygon fill="#f720dd" fill-opacity="0.231373" stroke="transparent" points="261,-327.5 261,-346.5 418,-346.5 418,-327.5 261,-327.5"/>
<text text-anchor="start" x="263" y="-333.3" font-family="Times,serif" font-size="14.00">Нет &#45; 6E19627E0090</text>
<polygon fill="none" stroke="black" points="90.5,-322 90.5,-437 423.5,-437 423.5,-322 90.5,-322"/>
</g>
<!-- node_6E19627E0050 -->
<g id="node2" class="node">
<title>node_6E19627E0050</title>
<polygon fill="#b6b4b4" stroke="transparent" points="212,-282 0,-282 0,-159 212,-159 212,-282"/>
<polygon fill="#8d869a" fill-opacity="0.047059" stroke="transparent" points="9,-255.5 9,-276.5 203,-276.5 203,-255.5 9,-255.5"/>
<polygon fill="none" stroke="black" points="9,-255.5 9,-276.5 203,-276.5 203,-255.5 9,-255.5"/>
<text text-anchor="start" x="24.5" y="-262.3" font-family="Times,serif" font-size="14.00">idx=0x6E19627E0050</text>
<polygon fill="#a41b58" fill-opacity="0.882353" stroke="transparent" points="9,-234.5 9,-255.5 203,-255.5 203,-234.5 9,-234.5"/>
<polygon fill="none" stroke="black" points="9,-234.5 9,-255.5 203,-255.5 203,-234.5 9,-234.5"/>
<text text-anchor="start" x="12" y="-241.3" font-family="Times,serif" font-size="14.00">parent=0x6E19627E0010</text>
<polygon fill="none" stroke="black" points="9,-213.5 9,-234.5 203,-234.5 203,-213.5 9,-213.5"/>
<text text-anchor="start" x="47" y="-220.3" font-family="Times,serif" font-size="14.00">type=VARIABLE</text>
<polygon fill="none" stroke="black" points="9,-192.5 9,-213.5 203,-213.5 203,-192.5 9,-192.5"/>
<text text-anchor="start" x="76.5" y="-199.3" font-family="Times,serif" font-size="14.00">value=x</text>
<polygon fill="none" stroke="black" points="9,-163.5 9,-192.5 203,-192.5 203,-163.5 9,-163.5"/>
<polygon fill="#b6b4b4" stroke="transparent" points="14,-168.5 14,-187.5 83,-187.5 83,-168.5 14,-168.5"/>
<text text-anchor="start" x="32.5" y="-174.3" font-family="Times,serif" font-size="14.00">0 &#45; 0</text>
<text text-anchor="start" x="103" y="-175.5" font-family="Times,serif" font-size="10.00">│</text>
<polygon fill="#b6b4b4" stroke="transparent" points="130,-168.5 130,-187.5 198,-187.5 198,-168.5 130,-168.5"/>
<text text-anchor="start" x="148" y="-174.3" font-family="Times,serif" font-size="14.00">0 &#45; 0</text>
<polygon fill="none" stroke="black" points="8,-163 8,-278 204,-278 204,-163 8,-163"/>
</g>
<!-- node_6E19627E0010&#45;&gt;node_6E19627E0050 -->
<g id="edge1" class="edge">
<title>node_6E19627E0010:s&#45;&gt;node_6E19627E0050</title>
<path fill="none" stroke="black" d="M171,-326.5C171,-326.5 161.04,-310.42 148.93,-290.84"/>
<polygon fill="black" stroke="black" points="151.86,-288.94 143.62,-282.27 145.91,-292.62 151.86,-288.94"/>
</g>
<!-- node_6E19627E0090 -->
<g id="node3" class="node">
<title>node_6E19627E0090</title>
<polygon fill="#b6b4b4" stroke="transparent" points="581.5,-282 230.5,-282 230.5,-159 581.5,-159 581.5,-282"/>
<polygon fill="#f720dd" fill-opacity="0.231373" stroke="transparent" points="240,-255.5 240,-276.5 573,-276.5 573,-255.5 240,-255.5"/>
<polygon fill="none" stroke="black" points="240,-255.5 240,-276.5 573,-276.5 573,-255.5 240,-255.5"/>
<text text-anchor="start" x="325" y="-262.3" font-family="Times,serif" font-size="14.00">idx=0x6E19627E0090</text>
<polygon fill="#a41b58" fill-opacity="0.882353" stroke="transparent" points="240,-234.5 240,-255.5 573,-255.5 573,-234.5 240,-234.5"/>
<polygon fill="none" stroke="black" points="240,-234.5 240,-255.5 573,-255.5 573,-234.5 240,-234.5"/>
<text text-anchor="start" x="312.5" y="-241.3" font-family="Times,serif" font-size="14.00">parent=0x6E19627E0010</text>
<polygon fill="none" stroke="black" points="240,-213.5 240,-234.5 573,-234.5 573,-213.5 240,-213.5"/>
<text text-anchor="start" x="349.5" y="-220.3" font-family="Times,serif" font-size="14.00">type=NUMBER</text>
<polygon fill="none" stroke="black" points="240,-192.5 240,-213.5 573,-213.5 573,-192.5 240,-192.5"/>
<text text-anchor="start" x="375" y="-199.3" font-family="Times,serif" font-size="14.00">value=+</text>
<polygon fill="none" stroke="black" points="240,-163.5 240,-192.5 573,-192.5 573,-163.5 240,-163.5"/>
<polygon fill="#debd1f" fill-opacity="0.839216" stroke="transparent" points="245,-168.5 245,-187.5 396,-187.5 396,-168.5 245,-168.5"/>
<text text-anchor="start" x="247" y="-174.3" font-family="Times,serif" font-size="14.00">Да &#45; 6E19627E00D0</text>
<text text-anchor="start" x="400" y="-175.5" font-family="Times,serif" font-size="10.00">│</text>
<polygon fill="#26c535" fill-opacity="0.019608" stroke="transparent" points="411,-168.5 411,-187.5 568,-187.5 568,-168.5 411,-168.5"/>
<text text-anchor="start" x="413" y="-174.3" font-family="Times,serif" font-size="14.00">Нет &#45; 6E19627E0110</text>
<polygon fill="none" stroke="black" points="238.5,-163 238.5,-278 573.5,-278 573.5,-163 238.5,-163"/>
</g>
<!-- node_6E19627E0010&#45;&gt;node_6E19627E0090 -->
<g id="edge2" class="edge">
<title>node_6E19627E0010:s&#45;&gt;node_6E19627E0090</title>
<path fill="none" stroke="black" d="M340,-326.5C340,-326.5 350.11,-310.42 362.41,-290.84"/>
<polygon fill="black" stroke="black" points="365.44,-292.6 367.8,-282.27 359.51,-288.88 365.44,-292.6"/>
</g>
<!-- node_6E19627E00D0 -->
<g id="node4" class="node">
<title>node_6E19627E00D0</title>
<polygon fill="#b6b4b4" stroke="transparent" points="396,-123 184,-123 184,0 396,0 396,-123"/>
<polygon fill="#debd1f" fill-opacity="0.839216" stroke="transparent" points="193,-96.5 193,-117.5 387,-117.5 387,-96.5 193,-96.5"/>
<polygon fill="none" stroke="black" points="193,-96.5 193,-117.5 387,-117.5 387,-96.5 193,-96.5"/>
<text text-anchor="start" x="207.5" y="-103.3" font-family="Times,serif" font-size="14.00">idx=0x6E19627E00D0</text>
<polygon fill="#f720dd" fill-opacity="0.231373" stroke="transparent" points="193,-75.5 193,-96.5 387,-96.5 387,-75.5 193,-75.5"/>
<polygon fill="none" stroke="black" points="193,-75.5 193,-96.5 387,-96.5 387,-75.5 193,-75.5"/>
<text text-anchor="start" x="196" y="-82.3" font-family="Times,serif" font-size="14.00">parent=0x6E19627E0090</text>
<polygon fill="none" stroke="black" points="193,-54.5 193,-75.5 387,-75.5 387,-54.5 193,-54.5"/>
<text text-anchor="start" x="231" y="-61.3" font-family="Times,serif" font-size="14.00">type=VARIABLE</text>
<polygon fill="none" stroke="black" points="193,-33.5 193,-54.5 387,-54.5 387,-33.5 193,-33.5"/>
<text text-anchor="start" x="260.5" y="-40.3" font-family="Times,serif" font-size="14.00">value=y</text>
<polygon fill="none" stroke="black" points="193,-4.5 193,-33.5 387,-33.5 387,-4.5 193,-4.5"/>
<polygon fill="#b6b4b4" stroke="transparent" points="198,-9.5 198,-28.5 267,-28.5 267,-9.5 198,-9.5"/>
<text text-anchor="start" x="216.5" y="-15.3" font-family="Times,serif" font-size="14.00">0 &#45; 0</text>
<text text-anchor="start" x="287" y="-16.5" font-family="Times,serif" font-size="10.00">│</text>
<polygon fill="#b6b4b4" stroke="transparent" points="314,-9.5 314,-28.5 382,-28.5 382,-9.5 314,-9.5"/>
<text text-anchor="start" x="332" y="-15.3" font-family="Times,serif" font-size="14.00">0 &#45; 0</text>
<polygon fill="none" stroke="black" points="192,-4 192,-119 388,-119 388,-4 192,-4"/>
</g>
<!-- node_6E19627E0090&#45;&gt;node_6E19627E00D0 -->
<g id="edge3" class="edge">
<title>node_6E19627E0090:s&#45;&gt;node_6E19627E00D0</title>
<path fill="none" stroke="black" d="M320,-167.5C320,-167.5 315.61,-152.13 310.18,-133.15"/>
<polygon fill="black" stroke="black" points="313.48,-131.93 307.36,-123.27 306.75,-133.85 313.48,-131.93"/>
</g>
<!-- node_6E19627E0110 -->
<g id="node5" class="node">
<title>node_6E19627E0110</title>
<polygon fill="#b6b4b4" stroke="transparent" points="626,-123 414,-123 414,0 626,0 626,-123"/>
<polygon fill="#26c535" fill-opacity="0.019608" stroke="transparent" points="423,-96.5 423,-117.5 617,-117.5 617,-96.5 423,-96.5"/>
<polygon fill="none" stroke="black" points="423,-96.5 423,-117.5 617,-117.5 617,-96.5 423,-96.5"/>
<text text-anchor="start" x="438.5" y="-103.3" font-family="Times,serif" font-size="14.00">idx=0x6E19627E0110</text>
<polygon fill="#f720dd" fill-opacity="0.231373" stroke="transparent" points="423,-75.5 423,-96.5 617,-96.5 617,-75.5 423,-75.5"/>
<polygon fill="none" stroke="black" points="423,-75.5 423,-96.5 617,-96.5 617,-75.5 423,-75.5"/>
<text text-anchor="start" x="426" y="-82.3" font-family="Times,serif" font-size="14.00">parent=0x6E19627E0090</text>
<polygon fill="none" stroke="black" points="423,-54.5 423,-75.5 617,-75.5 617,-54.5 423,-54.5"/>
<text text-anchor="start" x="463" y="-61.3" font-family="Times,serif" font-size="14.00">type=NUMBER</text>
<polygon fill="none" stroke="black" points="423,-33.5 423,-54.5 617,-54.5 617,-33.5 423,-33.5"/>
<text text-anchor="start" x="490" y="-40.3" font-family="Times,serif" font-size="14.00">value=6</text>
<polygon fill="none" stroke="black" points="423,-4.5 423,-33.5 617,-33.5 617,-4.5 423,-4.5"/>
<polygon fill="#b6b4b4" stroke="transparent" points="428,-9.5 428,-28.5 497,-28.5 497,-9.5 428,-9.5"/>
<text text-anchor="start" x="446.5" y="-15.3" font-family="Times,serif" font-size="14.00">0 &#45; 0</text>
<text text-anchor="start" x="517" y="-16.5" font-family="Times,serif" font-size="10.00">│</text>
<polygon fill="#b6b4b4" stroke="transparent" points="544,-9.5 544,-28.5 612,-28.5 612,-9.5 544,-9.5"/>
<text text-anchor="start" x="562" y="-15.3" font-family="Times,serif" font-size="14.00">0 &#45; 0</text>
<polygon fill="none" stroke="black" points="422,-4 422,-119 618,-119 618,-4 422,-4"/>
</g>
<!-- node_6E19627E0090&#45;&gt;node_6E19627E0110 -->
<g id="edge4" class="edge">
<title>node_6E19627E0090:s&#45;&gt;node_6E19627E0110</title>
<path fill="none" stroke="black" d="M490,-167.5C490,-167.5 494.39,-152.13 499.82,-133.15"/>
<polygon fill="black" stroke="black" points="503.25,-133.85 502.64,-123.27 496.52,-131.93 503.25,-133.85"/>
</g>
</g>
</svg>
